<svg width="65" height="69" viewBox="0 0 65 69" fill="none" xmlns="http://www.w3.org/2000/svg">
<path d="M59.2047 4.90503L52.8537 6.46041L47.8508 3.48715C46.0411 2.41039 43.8694 2.07615 41.7996 2.55581L33.8608 4.50003C32.9874 2.85866 31.588 1.54951 29.8777 0.773826C28.1675 -0.00186086 26.241 -0.201155 24.3944 0.206577L29.2523 20.0424C30.1869 23.1522 32.1888 25.8391 34.9182 27.6469C39.2915 30.1307 44.4299 31.0037 49.4232 30.1113L59.3246 23.1243C60.4858 22.3027 61.4532 21.2432 62.1593 20.0198C62.8654 18.7963 63.2931 17.4382 63.4128 16.0402L64.0224 10.8328C63.9921 10.5005 63.9123 10.1747 63.7856 9.86601L63.144 7.24618C62.9414 6.41902 62.4126 5.70766 61.6738 5.26861C60.9351 4.82956 60.0469 4.69878 59.2047 4.90503ZM44.8548 15.0312C44.2268 15.185 43.568 15.1524 42.9619 14.9376C42.3558 14.7228 41.8295 14.3354 41.4495 13.8243C41.0696 13.3133 40.8532 12.7016 40.8275 12.0666C40.8019 11.4316 40.9682 10.8018 41.3055 10.2569C41.6428 9.71195 42.1359 9.27633 42.7224 9.00513C43.3089 8.73394 43.9625 8.63933 44.6006 8.73328C45.2386 8.82724 45.8325 9.10553 46.307 9.53297C46.7815 9.9604 47.1154 10.5178 47.2665 11.1346C47.4691 11.9618 47.3288 12.837 46.8765 13.5678C46.4243 14.2985 45.697 14.8249 44.8548 15.0312Z" fill="#359364"/>
<path d="M33.6921 30.52C30.8752 28.6535 28.6835 26.0002 27.3931 22.8945L14.4041 26.0756C13.565 26.3402 12.6793 26.4246 11.8065 26.3229C10.9336 26.2213 10.0937 25.9361 9.343 25.4863C8.59226 25.0365 7.94803 24.4326 7.45343 23.715C6.95883 22.9974 6.62528 22.1827 6.47512 21.3253C6.27008 20.4881 5.73721 19.7675 4.99372 19.3221C4.25023 18.8767 3.35704 18.7429 2.51062 18.9502C1.66421 19.1575 0.933917 19.6889 0.480396 20.4274C0.0268743 21.166 -0.112723 22.0513 0.092313 22.8885C0.660874 25.0713 1.71217 27.0995 3.17037 28.8267C4.75268 30.6279 6.85956 31.8996 9.20412 32.4685L18.0715 68.676L27.6457 66.3312L23.7802 50.5477L42.9286 45.8582L46.7941 61.6417L56.3683 59.297L50.0831 33.6329C44.4096 34.5626 38.5975 33.4588 33.6921 30.52Z" fill="#359364"/>
</svg>
