<svg width="69" height="71" viewBox="0 0 69 71" fill="none" xmlns="http://www.w3.org/2000/svg">
<path d="M23.2764 41.3666C20.2543 41.9543 17.1239 41.6433 14.2612 40.471L13.2311 40.0458C12.6567 39.7979 12.1057 39.4968 11.5852 39.1464L10.7999 38.6395C10.1341 38.1767 9.50766 37.6582 8.92703 37.0893L8.68818 36.8716C8.02903 36.2109 7.43701 35.4847 6.92117 34.704C6.76132 34.4899 6.61827 34.2634 6.49334 34.0268C6.10341 33.4268 5.76038 32.7969 5.46743 32.1429L5.12109 31.3832C4.81341 30.4556 4.58109 29.5043 4.42647 28.539L0 6.22382L11.3099 13.9203L23.8604 11.4308L31.3763 0L35.8027 22.3152C36.6413 26.5426 35.7926 30.9247 33.4435 34.4976C31.0943 38.0704 27.4371 40.5412 23.2764 41.3666ZM12.5746 20.2961C11.9541 20.4192 11.3845 20.7265 10.938 21.1791C10.4915 21.6318 10.1881 22.2094 10.0662 22.8391C9.94428 23.4687 10.0093 24.122 10.253 24.7164C10.4967 25.3107 10.9083 25.8195 11.4355 26.1783C11.9627 26.5371 12.582 26.7298 13.2151 26.7321C13.8481 26.7343 14.4665 26.5461 14.9919 26.1911C15.5174 25.836 15.9264 25.3302 16.1671 24.7376C16.4079 24.145 16.4697 23.4921 16.3446 22.8616C16.1769 22.0161 15.6855 21.2709 14.9785 20.7897C14.2715 20.3086 13.4068 20.131 12.5746 20.2961ZM25.1251 17.8066C24.5046 17.9297 23.935 18.237 23.4885 18.6896C23.042 19.1423 22.7386 19.7199 22.6167 20.3495C22.4948 20.9791 22.5598 21.6324 22.8035 22.2268C23.0473 22.8212 23.4588 23.33 23.986 23.6887C24.5132 24.0475 25.1325 24.2403 25.7656 24.2425C26.3986 24.2448 27.017 24.0565 27.5424 23.7015C28.0679 23.3465 28.4769 22.8407 28.7176 22.2481C28.9584 21.6554 29.0202 21.0026 28.8951 20.3721C28.7274 19.5266 28.236 18.7813 27.529 18.3002C26.822 17.8191 25.9573 17.6415 25.1251 17.8066Z" fill="#359364"/>
<path d="M48.4152 65.945L45.2534 50.0056L54.7738 48.1171L57.9356 64.0566L67.4559 62.1681L61.0692 29.9704C62.6366 29.4147 64.0618 28.518 65.2431 27.3444C66.4243 26.1707 67.3323 24.7491 67.9023 23.1812C68.5908 21.2829 68.7759 19.2367 68.4396 17.2431C68.0674 15.6685 67.3786 14.1865 66.4154 12.8881C65.4522 11.5897 64.235 10.5025 62.8387 9.69323C61.4424 8.88399 59.8966 8.36985 58.2961 8.18245C56.6957 7.99504 55.0746 8.13833 53.5325 8.60349C52.6959 8.82258 51.8222 8.86089 50.9691 8.71589C50.116 8.57088 49.303 8.24587 48.5836 7.76229C47.8642 7.27871 47.2549 6.64758 46.7959 5.91056C46.337 5.17354 46.0387 4.3474 45.9209 3.48669C45.7532 2.64121 45.258 1.89668 44.5442 1.41689C43.8305 0.937096 42.9567 0.761343 42.1151 0.928294C41.2734 1.09525 40.5328 1.59123 40.0563 2.30712C39.5797 3.02302 39.4062 3.90019 39.5739 4.74567C39.8605 6.44295 40.4891 8.06419 41.4212 9.51003C42.3533 10.9559 43.5692 12.1959 44.9945 13.154C46.4198 14.1121 48.0244 14.7682 49.71 15.0821C51.3957 15.396 53.1267 15.361 54.7972 14.9793C60.5412 13.8399 61.8777 17.4182 62.099 18.534C62.3203 19.6498 62.47 23.3973 56.6943 24.5429L40.5413 27.747C40.6199 30.5858 40.0801 33.4065 38.9596 36.0118C37.839 38.6172 36.1648 40.9443 34.0541 42.8304C31.9433 44.7165 29.4469 46.1161 26.7395 46.9313C24.0321 47.7465 21.1789 47.9577 18.3797 47.55L23.0275 70.981L32.5479 69.0925L29.3861 53.1531L35.733 51.8941L38.8948 67.8335L48.4152 65.945Z" fill="#359364"/>
</svg>
