<svg width="690" height="285" viewBox="0 0 690 285" fill="none" xmlns="http://www.w3.org/2000/svg">
<path d="M160.729 134.869C156.998 134.869 153.429 134.555 150.018 133.922C146.607 133.288 143.822 132.326 141.678 131.03C139.527 129.734 138.459 128.174 138.459 126.337C138.459 124.948 138.808 123.744 139.499 122.733C140.19 121.722 141.03 120.725 142.013 119.749C142.989 118.766 143.922 117.634 144.812 116.337C145.695 115.041 146.137 113.353 146.137 111.267V34.0217C146.137 28.2101 145.866 24.3856 145.332 22.5553C144.798 20.7249 143.167 19.8062 140.453 19.8062C136.978 19.8062 134.115 20.376 131.878 21.5084C129.635 22.6479 127.726 24.0865 126.145 25.8243C124.564 27.562 123.175 29.3497 121.972 31.18C120.455 33.516 118.81 35.5244 117.043 37.1981C115.277 38.8717 112.934 39.7121 110.028 39.7121C107.941 39.7121 106.175 39.0996 104.722 37.8675C103.269 36.6354 102.543 34.6911 102.543 32.0346C102.543 29.9479 103.362 26.3157 105.007 21.138C106.652 15.9603 108.796 11.2029 111.453 6.8727C114.109 2.54254 116.979 0.256391 120.077 0C121.217 0 122.449 0.377465 123.774 1.13952C124.721 1.70927 126.145 2.27903 128.04 2.84167C129.934 3.41143 132.968 3.6963 137.142 3.6963H185.578C189.752 3.6963 192.778 3.41143 194.68 2.84167C196.574 2.27191 197.999 1.70215 198.946 1.13952C200.271 0.377465 201.503 0 202.642 0C205.74 0.256391 208.611 2.54254 211.267 6.8727C213.924 11.2029 216.067 15.9532 217.712 21.138C219.358 26.3228 220.177 29.955 220.177 32.0346C220.177 34.6911 219.45 36.6354 217.997 37.8675C216.544 39.0996 214.771 39.7121 212.691 39.7121C209.722 39.7121 207.364 38.8575 205.634 37.1553C203.896 35.4532 202.272 33.459 200.755 31.1871C199.487 29.3568 198.084 27.5692 196.539 25.8314C194.993 24.0936 193.092 22.655 190.855 21.5155C188.612 20.376 185.749 19.8133 182.281 19.8133C179.688 19.8133 178.107 20.6181 177.544 22.2277C176.975 23.8372 176.69 27.5549 176.69 33.3664V111.466C176.69 113.489 177.117 115.148 177.972 116.444C178.826 117.74 179.738 118.859 180.721 119.806C181.697 120.753 182.537 121.736 183.235 122.747C183.933 123.759 184.275 124.962 184.275 126.351C184.275 128.245 183.121 129.826 180.813 131.094C178.506 132.355 175.55 133.309 171.954 133.936C168.35 134.57 164.625 134.883 160.772 134.883L160.729 134.869Z" fill="#FFD48F"/>
<path d="M218.309 134.869C214.577 134.869 211.009 134.555 207.597 133.922C204.186 133.288 201.401 132.326 199.258 131.03C197.107 129.734 196.031 128.174 196.031 126.337C196.031 124.948 196.38 123.744 197.071 122.733C197.769 121.722 198.602 120.725 199.585 119.749C200.561 118.766 201.494 117.634 202.384 116.337C203.267 115.041 203.709 113.353 203.709 111.267V72.8791C203.709 70.7283 203.267 69.0119 202.384 67.7157C201.501 66.4195 200.568 65.2871 199.585 64.3043C198.602 63.3286 197.769 62.3315 197.071 61.3202C196.373 60.3088 196.031 59.1124 196.031 57.7164C196.031 55.5656 197.883 53.2296 201.579 50.7013C205.276 48.173 209.542 46.0079 214.377 44.2061C219.213 42.4042 223.301 41.5068 226.649 41.5068C229.177 41.5068 230.943 41.8273 231.954 42.4541C232.966 43.0879 233.692 43.7218 234.134 44.3485C234.575 44.9824 235.031 45.4738 235.508 45.8156C235.978 46.1646 236.691 46.3355 237.638 46.3355C238.649 46.3355 239.881 45.894 241.334 45.0108C242.41 44.2559 244.048 43.4939 246.263 42.7389C248.477 41.9769 251.953 41.5994 256.689 41.5994C261.425 41.5994 265.3 42.8814 268.868 45.4382C272.436 47.995 275.249 51.2995 277.3 55.3448C279.351 59.3901 280.412 63.7203 280.477 68.3282C280.477 73.8904 279.494 78.4058 277.535 81.8813C275.577 85.3568 273.098 87.9136 270.093 89.5588C267.087 91.204 264.039 92.023 260.948 92.023C256.967 92.023 253.399 90.7909 250.237 88.3267C247.074 85.8625 245.5 82.4795 245.5 78.185C245.5 76.668 245.771 75.2294 246.305 73.8691C246.839 72.5088 247.409 71.2126 248.015 69.9805C248.613 68.7484 249.133 67.5661 249.581 66.4266C250.023 65.2871 250.244 64.1547 250.244 63.0152C250.244 61.4982 249.866 60.202 249.104 59.1266C248.349 58.0512 246.953 57.517 244.931 57.517C237.787 57.517 234.219 63.1719 234.219 74.4816V111.259C234.219 113.346 234.661 115.034 235.544 116.33C236.427 117.626 237.36 118.766 238.343 119.742C239.319 120.725 240.159 121.715 240.857 122.726C241.555 123.737 241.897 124.941 241.897 126.33C241.897 128.224 240.743 129.805 238.435 131.073C236.128 132.333 233.172 133.288 229.576 133.914C225.972 134.548 222.212 134.862 218.295 134.862L218.309 134.869Z" fill="#FFD48F"/>
<path d="M329.157 136.671C321.7 136.671 315.19 135.296 309.628 132.547C304.066 129.798 299.437 126.116 295.74 121.508C292.044 116.893 289.266 111.701 287.4 105.918C285.535 100.135 284.602 94.2166 284.602 88.1487C284.602 82.0807 285.535 76.255 287.4 70.4719C289.266 64.6889 292.044 59.4898 295.74 54.8819C299.437 50.2669 304.066 46.5919 309.628 43.8429C315.19 41.0938 321.7 39.7192 329.157 39.7192C335.73 39.7192 341.869 41.4712 347.595 44.9824C353.314 48.4864 357.944 53.3863 361.483 59.675C365.023 65.9637 366.789 73.3065 366.789 81.7104C366.789 83.6048 366.333 85.4423 365.415 87.2086C364.496 88.9748 363.143 90.449 361.341 91.6171C359.539 92.7851 357.281 93.3691 354.561 93.3691H322.049C319.585 93.3691 317.704 93.6539 316.408 94.2237C315.112 94.7934 314.464 95.7692 314.464 97.1651C314.528 99.38 315.425 101.759 317.163 104.323C318.901 106.879 321.429 109.109 324.748 111.003C328.067 112.898 331.998 113.845 336.549 113.845C340.338 113.845 343.671 113.353 346.548 112.378C349.426 111.402 352.438 110.056 355.601 108.347C356.925 107.656 358.157 107.307 359.297 107.307C361.319 107.307 362.815 108.019 363.798 109.443C364.774 110.868 365.265 112.748 365.265 115.084C365.265 116.978 364.695 118.716 363.556 120.297C355.907 131.229 344.44 136.692 329.149 136.692L329.157 136.671ZM325.054 53.7282C323.224 53.7851 321.479 54.0985 319.82 54.6896C318.16 55.2736 316.828 56.2493 315.824 57.6025C314.82 58.9628 314.35 60.7718 314.421 63.0508C314.5 65.8284 315.169 68.6701 316.423 71.5758C317.676 74.4816 319.314 76.9244 321.33 78.9257C323.345 80.9199 325.496 81.8884 327.768 81.8172C329.983 81.7531 332.183 80.8201 334.37 79.0183C336.563 77.2164 338.372 74.795 339.797 71.7467C341.228 68.6985 341.884 65.3156 341.777 61.5908C341.734 60.1379 341.335 58.7919 340.566 57.5455C339.804 56.3063 338.244 55.3235 335.88 54.6042C333.522 53.8848 329.912 53.5928 325.047 53.7353L325.054 53.7282Z" fill="#FFD48F"/>
<path d="M442.758 134.869C439.219 134.869 435.302 134.078 431.007 132.497C427.845 131.301 424.626 130.603 421.343 130.411C419.826 130.411 418.337 130.617 416.884 131.023C415.431 131.436 414.007 131.892 412.618 132.398C407.754 134.043 403.174 134.862 398.873 134.862C390.533 134.862 383.895 132.305 378.967 127.184C374.038 122.064 371.574 115.305 371.574 106.901C371.574 100.833 373.583 95.2137 377.592 90.0289C381.602 84.8513 387.812 81.2119 396.216 79.1323C402.911 77.7435 409.2 77.0456 415.075 77.0456C418.423 77.0456 420.431 76.5542 421.093 75.5785C421.756 74.6027 422.09 73.0074 422.09 70.7925V69.5604C422.09 65.8356 421.492 62.8657 420.289 60.6508C419.085 58.4359 417.604 56.8477 415.837 55.8648C414.071 54.8891 412.333 54.3977 410.624 54.3977C408.915 54.3977 407.319 54.825 406.03 55.6797C404.734 56.5343 404.086 57.6525 404.086 59.0412C404.086 59.5469 404.278 60.2591 404.656 61.1707C405.033 62.0894 405.226 63.0224 405.226 63.9696C405.226 67.0036 404.421 69.3254 402.811 70.9349C401.202 72.5445 399.286 73.6555 397.078 74.2538C394.863 74.852 392.84 75.1583 391.01 75.1583C386.395 75.1583 382.941 73.9262 380.633 71.462C378.326 68.9978 377.172 66.1205 377.172 62.8372C377.364 57.1539 379.43 52.6172 383.382 49.2343C387.328 45.8513 392.086 43.4227 397.648 41.9343C403.21 40.4529 408.295 39.7051 412.91 39.7051C417.774 39.7051 422.575 40.3532 427.318 41.6494C432.054 42.9456 436.32 44.8543 440.116 47.3826C443.905 49.9109 446.939 53.0517 449.218 56.8121C451.49 60.5725 452.629 64.9169 452.629 69.8453V111.267C452.629 113.353 452.943 115.041 453.577 116.338C454.21 117.634 454.901 118.773 455.663 119.749C456.425 120.725 457.052 121.722 457.558 122.733C458.063 123.744 458.313 124.948 458.313 126.337C458.313 128.552 456.888 130.524 454.047 132.262C451.205 134 447.445 134.869 442.765 134.869H442.758ZM409.869 118.282C413.216 118.282 416.094 117.228 418.494 115.105C420.894 112.99 422.098 109.878 422.098 105.769C422.098 95.7194 418.843 90.6984 412.333 90.6984C408.794 90.7625 405.995 91.4747 403.944 92.835C401.892 94.1953 400.418 95.9473 399.535 98.0981C398.652 100.249 398.21 102.492 398.21 104.828C398.21 106.979 398.652 109.094 399.535 111.181C400.418 113.268 401.729 114.97 403.466 116.302C405.204 117.627 407.334 118.296 409.862 118.296L409.869 118.282Z" fill="#FFD48F"/>
<path d="M496.929 134.869C491.68 134.869 486.851 133.843 482.429 131.792C478.006 129.741 474.466 126.073 471.81 120.796C469.153 115.518 467.828 108.083 467.828 98.4756V65.394C467.828 61.6692 467.544 59.1267 466.974 57.7664C466.404 56.4061 465.143 55.7295 463.185 55.7295C460.721 55.7295 458.947 55.0173 457.879 53.6C456.804 52.1756 456.27 50.6159 456.27 48.9066C456.27 47.0763 456.775 45.3955 457.787 43.8856C458.798 42.3687 460.094 41.6137 461.675 41.6137C464.581 41.6137 467.059 40.8731 469.118 39.3846C471.169 37.9032 473.27 34.9476 475.421 30.5248C477.066 27.2416 479.003 24.9341 481.246 23.6023C483.49 22.2776 486.253 21.6152 489.543 21.6152C491.943 21.6152 494.016 22.5126 495.754 24.3145C497.492 26.1163 498.36 28.4737 498.36 31.3795V33.8437C498.36 37.134 498.66 39.235 499.258 40.1466C499.856 41.0653 501.644 41.5211 504.613 41.5211H511.436C513.395 41.5211 515.069 41.977 516.457 42.8957C517.846 43.8144 518.544 45.7231 518.544 48.6289C518.544 51.5346 517.882 53.2866 516.557 54.2695C515.232 55.2523 513.651 55.7366 511.821 55.7366L504.236 55.644C501.33 55.644 499.621 56.1497 499.115 57.161C498.61 58.1723 498.36 60.7291 498.36 64.8385V99.5296C498.36 101.552 498.489 103.703 498.738 105.975C498.987 108.247 499.671 110.177 500.775 111.758C501.879 113.339 503.695 114.13 506.223 114.13C507.042 114.13 508.117 113.937 509.449 113.56C511.094 113.054 512.768 112.798 514.47 112.798C516.172 112.798 517.533 113.304 518.736 114.315C519.933 115.326 520.538 117.413 520.538 120.568C520.538 123.353 519.242 125.831 516.65 128.01C514.057 130.19 510.945 131.885 507.313 133.081C503.68 134.285 500.219 134.883 496.936 134.883L496.929 134.869Z" fill="#FFD48F"/>
<path d="M19.3931 104.493C16.8933 104.493 14.5858 104.023 12.4777 103.076C10.3696 102.129 8.68169 100.441 7.41397 98.0054C6.14626 95.5697 5.51241 92.144 5.51241 87.7141V72.4589C5.51241 70.7425 5.37709 69.5673 5.10645 68.9406C4.83582 68.3139 4.23045 68.0005 3.29747 68.0005C2.12235 68.0005 1.28196 67.6729 0.769173 67.0177C0.256391 66.3624 0 65.6431 0 64.8526C0 64.0051 0.242147 63.2359 0.726441 62.5379C1.21074 61.84 1.82323 61.491 2.57815 61.491C3.96694 61.491 5.14919 61.1492 6.1249 60.4655C7.10061 59.7817 8.10481 58.4214 9.13037 56.3774C9.91379 54.8605 10.8396 53.7993 11.9079 53.1868C12.9762 52.5743 14.2938 52.2681 15.8606 52.2681C17.0073 52.2681 17.9901 52.6811 18.8234 53.5144C19.6495 54.3477 20.0697 55.4302 20.0697 56.7692V57.9087C20.0697 59.4256 20.2122 60.3942 20.497 60.8144C20.7819 61.2346 21.6366 61.4483 23.0538 61.4483H26.3086C27.2415 61.4483 28.0392 61.6619 28.7016 62.0821C29.3639 62.5023 29.6986 63.3855 29.6986 64.7244C29.6986 66.0633 29.3853 66.8752 28.7514 67.3239C28.1175 67.7726 27.3626 68.0005 26.4937 68.0005L22.8758 67.9578C21.487 67.9578 20.6751 68.1928 20.4329 68.6557C20.1908 69.1258 20.0697 70.3009 20.0697 72.1953V88.1913C20.0697 89.1243 20.1267 90.1142 20.2478 91.1611C20.3688 92.2081 20.6893 93.0983 21.2164 93.8248C21.7434 94.5512 22.6123 94.9144 23.8159 94.9144C24.2076 94.9144 24.7204 94.829 25.3542 94.6509C26.1376 94.4159 26.9353 94.3019 27.7472 94.3019C28.5591 94.3019 29.2072 94.537 29.7841 94.9999C30.3538 95.4628 30.6458 96.4243 30.6458 97.8843C30.6458 99.1662 30.0262 100.313 28.7941 101.317C27.562 102.321 26.0735 103.105 24.3429 103.653C22.6123 104.209 20.96 104.486 19.3931 104.486V104.493Z" fill="#FFD48F"/>
<path d="M72.005 104.536C70.2245 104.536 68.5224 104.394 66.8986 104.102C65.2747 103.81 63.9429 103.376 62.9245 102.792C61.8989 102.208 61.3862 101.495 61.3862 100.648C61.3862 100.007 61.55 99.4513 61.8847 98.9884C62.2123 98.5255 62.6111 98.0626 63.0812 97.6139C63.5512 97.1652 63.9928 96.6382 64.413 96.0399C64.8332 95.4417 65.0469 94.6511 65.0469 93.6612V78.8902C65.0469 76.7038 64.7477 74.8877 64.1424 73.4277C63.537 71.9748 62.7607 70.8851 61.8135 70.1729C60.8663 69.4607 59.8621 69.1046 58.808 69.1046C57.8109 69.1046 56.8637 69.4678 55.9592 70.1943C55.0547 70.9207 54.3069 72.0104 53.7229 73.449C53.1318 74.8877 52.8398 76.7038 52.8398 78.8902V93.6612C52.8398 94.6511 53.0535 95.4488 53.4736 96.0399C53.8938 96.6382 54.3425 97.1652 54.8055 97.6139C55.2755 98.0626 55.6743 98.5255 56.0019 98.9884C56.3296 99.4513 56.5005 100.007 56.5005 100.648C56.5005 101.524 55.9521 102.25 54.8482 102.834C53.7514 103.418 52.3413 103.846 50.6249 104.123C48.9085 104.401 47.1137 104.536 45.2478 104.536C43.3818 104.536 41.7651 104.394 40.1413 104.102C38.5175 103.81 37.1857 103.376 36.1673 102.792C35.1417 102.208 34.6289 101.495 34.6289 100.648C34.6289 100.007 34.7927 99.4513 35.1274 98.9884C35.4551 98.5255 35.8539 98.0626 36.3239 97.6139C36.794 97.1652 37.2356 96.6382 37.6557 96.0399C38.0759 95.4417 38.2896 94.6511 38.2896 93.6612V58.4786C38.2896 57.4887 38.0759 56.6839 37.6557 56.0714C37.2356 55.4589 36.7869 54.9319 36.3239 54.4975C35.8539 54.063 35.4551 53.6143 35.1274 53.1656C34.7927 52.717 34.6289 52.1686 34.6289 51.5276C34.6289 50.5376 35.512 49.4622 37.2712 48.2942C39.0374 47.1262 41.0672 46.1291 43.3747 45.303C45.6822 44.4697 47.6336 44.0566 49.229 44.0566C51.6362 44.0566 52.8469 45.0893 52.8469 47.1618V61.0141C52.8469 62.4741 53.5093 63.2005 54.8339 63.2005C55.5889 63.2005 56.6999 62.937 58.1813 62.4171C59.8692 61.8331 61.5856 61.5411 63.3305 61.5411C67.7888 61.5411 71.4922 62.6165 74.4479 64.7745C77.8806 67.2814 79.597 71.113 79.597 76.2693V93.6612C79.597 94.6511 79.8107 95.4488 80.2309 96.0399C80.6511 96.6382 81.0998 97.1652 81.5627 97.6139C82.0328 98.0626 82.4316 98.5255 82.7592 98.9884C83.0868 99.4513 83.2577 100.007 83.2577 100.648C83.2577 101.524 82.7093 102.25 81.6054 102.834C80.5087 103.418 79.0985 103.846 77.3821 104.123C75.6657 104.401 73.871 104.536 72.005 104.536Z" fill="#FFD48F"/>
<path d="M107.484 105.32C103.93 105.32 100.825 104.686 98.1754 103.418C95.526 102.151 93.3182 100.456 91.552 98.3261C89.7857 96.1966 88.461 93.8036 87.5779 91.14C86.6877 88.4764 86.2461 85.7416 86.2461 82.9426C86.2461 80.1437 86.6877 77.4587 87.5779 74.7951C88.4682 72.1315 89.7928 69.7314 91.552 67.609C93.3182 65.4795 95.5189 63.7845 98.1754 62.5168C100.825 61.2491 103.93 60.6152 107.484 60.6152C110.617 60.6152 113.545 61.42 116.272 63.0438C119 64.6605 121.208 66.9182 122.896 69.8168C124.584 72.7155 125.424 76.1055 125.424 79.9799C125.424 80.8559 125.203 81.6963 124.769 82.5153C124.334 83.3343 123.686 84.0109 122.825 84.5451C121.963 85.0863 120.887 85.3498 119.591 85.3498H104.087C102.912 85.3498 102.014 85.478 101.395 85.7416C100.775 86.0051 100.469 86.4537 100.469 87.0947C100.497 88.1132 100.924 89.2171 101.758 90.3922C102.584 91.5745 103.795 92.6 105.376 93.476C106.957 94.352 108.83 94.7865 111.002 94.7865C112.811 94.7865 114.399 94.5585 115.774 94.1099C117.141 93.6612 118.58 93.0416 120.09 92.251C120.724 91.9305 121.308 91.7739 121.856 91.7739C122.817 91.7739 123.537 92.1015 124 92.7567C124.47 93.4119 124.698 94.2808 124.698 95.3562C124.698 96.2322 124.427 97.0299 123.886 97.7634C120.239 102.806 114.77 105.327 107.477 105.327L107.484 105.32ZM108.388 80.0155C109.264 80.0155 110.098 79.8944 110.895 79.6451C111.693 79.3959 112.341 78.9686 112.84 78.3561C113.338 77.7436 113.587 76.9103 113.587 75.8634C113.587 74.5814 113.31 73.2639 112.754 71.9107C112.199 70.5575 111.451 69.4037 110.518 68.4565C109.585 67.5093 108.573 67.0321 107.491 67.0321C106.408 67.0321 105.376 67.431 104.307 68.2357C103.239 69.0405 102.342 70.1302 101.615 71.5118C100.889 72.8935 100.533 74.4461 100.533 76.1696C100.533 76.8391 100.704 77.4658 101.053 78.0498C101.402 78.6338 102.128 79.1039 103.246 79.4671C104.357 79.8303 106.081 80.0155 108.395 80.0155H108.388Z" fill="#FFD48F"/>
<path d="M154.931 239.541C148.358 239.541 142.069 238.686 136.072 236.984C130.069 235.282 125.154 232.689 121.33 229.214C117.505 225.738 115.597 221.408 115.597 216.23C115.597 211.936 116.715 208.774 118.958 206.751C121.202 204.728 123.68 203.717 126.401 203.717C128.231 203.717 130.111 204.173 132.041 205.092C133.971 206.01 135.595 207.349 136.92 209.123C138.245 210.896 138.907 213.075 138.907 215.661C138.907 217.747 139.462 219.343 140.566 220.447C141.67 221.55 143.173 222.327 145.067 222.768C146.962 223.21 149.013 223.431 151.228 223.431C154.511 223.431 157.36 222.74 159.76 221.344C162.16 219.955 163.421 217.712 163.549 214.614C163.549 212.149 162.68 210.048 160.942 208.311C159.205 206.573 156.926 204.992 154.119 203.567C151.306 202.143 148.208 200.754 144.832 199.394C141.449 198.034 138.024 196.517 134.548 194.843C131.073 193.169 127.882 191.161 124.976 188.825C122.071 186.489 119.727 183.676 117.961 180.385C116.195 177.102 115.305 173.121 115.305 168.442C115.497 161.996 117.691 156.862 121.893 153.037C126.094 149.213 131.244 146.499 137.34 144.882C143.436 143.273 149.205 142.468 154.639 142.468C161.59 142.468 168.05 143.337 174.025 145.075C179.994 146.812 184.787 149.448 188.383 152.987C191.987 156.527 193.846 160.95 193.974 166.255C193.974 168.976 193.44 171.219 192.364 172.986C191.289 174.759 189.929 176.062 188.291 176.917C186.645 177.772 184.943 178.199 183.17 178.199C181.397 178.199 179.459 177.743 177.529 176.824C175.599 175.913 173.976 174.553 172.651 172.751C171.326 170.949 170.664 168.784 170.664 166.255C170.664 164.105 170.094 162.481 168.955 161.377C167.815 160.273 166.298 159.511 164.404 159.105C162.509 158.692 160.422 158.492 158.15 158.492C154.867 158.492 152.068 159.219 149.761 160.672C147.453 162.125 146.235 164.34 146.114 167.309C146.114 169.774 146.997 171.889 148.771 173.662C150.537 175.429 152.88 177.045 155.786 178.498C158.692 179.951 161.882 181.375 165.358 182.764C169.973 184.594 174.503 186.717 178.961 189.117C183.412 191.517 187.116 194.565 190.05 198.262C192.991 201.958 194.522 206.68 194.643 212.434C194.643 217.363 193.077 221.885 189.95 225.987C186.824 230.097 182.301 233.38 176.397 235.844C170.486 238.308 163.328 239.541 154.931 239.541Z" fill="#FFD48F"/>
<path d="M347.056 239.54C339.599 239.54 333.04 238.152 327.392 235.367C321.737 232.589 317.03 228.893 313.269 224.278C309.509 219.663 306.681 214.457 304.787 208.638C302.893 202.827 301.945 196.887 301.945 190.819C301.945 184.751 302.878 178.847 304.744 173.092C306.61 167.345 309.416 162.16 313.177 157.545C316.937 152.93 321.645 149.269 327.3 146.549C332.954 143.835 339.542 142.475 347.063 142.475C355.025 142.475 361.421 143.629 366.257 145.936C371.093 148.244 374.632 151.228 376.876 154.896C379.119 158.564 380.237 162.545 380.237 166.839C380.237 171.134 378.891 175.023 376.206 178.306C373.521 181.596 369.868 183.234 365.26 183.234C361.72 183.234 358.358 182.066 355.168 179.73C351.977 177.394 350.254 174.075 350.004 169.781C349.94 166.683 349.449 164.318 348.537 162.673C347.618 161.028 346.451 159.91 345.033 159.311C343.609 158.713 342.142 158.407 340.625 158.407C338.161 158.407 336.06 159.447 334.322 161.534C332.584 163.62 331.274 166.369 330.39 169.781C329.507 173.192 329.066 176.924 329.066 180.962C329.066 185 329.557 189.224 330.533 193.426C331.509 197.628 332.997 201.481 334.984 204.992C336.971 208.496 339.535 211.345 342.662 213.524C345.788 215.703 349.47 216.793 353.701 216.793C356.606 216.793 359.135 216.366 361.286 215.511C363.436 214.656 365.317 213.616 366.926 212.384C368.536 211.152 370.01 209.87 371.335 208.546L372.375 207.598C373.571 206.402 374.931 205.797 376.448 205.797C380.622 205.797 382.701 208.325 382.701 213.381C382.701 216.672 381.377 220.147 378.72 223.808C371.769 234.299 361.214 239.54 347.063 239.54H347.056Z" fill="#FFD48F"/>
<path d="M413.688 237.746C408.062 237.746 403.013 237.033 398.526 235.609C394.039 234.185 391.667 232.091 391.418 229.306C391.482 227.917 391.845 226.714 392.508 225.702C393.17 224.691 393.989 223.694 394.972 222.718C395.948 221.743 396.881 220.603 397.771 219.307C398.654 218.011 399.095 216.287 399.095 214.143V173.862C399.095 171.775 398.761 170.073 398.098 168.741C397.436 167.409 396.724 166.262 395.969 165.28C395.214 164.304 394.58 163.321 394.074 162.338C393.569 161.355 393.32 160.173 393.32 158.784C393.32 156.634 395.007 154.454 398.39 152.246C401.773 150.031 405.719 148.187 410.241 146.698C414.757 145.217 418.695 144.469 422.042 144.469C427.099 144.469 429.627 146.713 429.627 151.199V214.136C429.627 216.287 430.069 218.004 430.952 219.3C431.835 220.596 432.768 221.736 433.751 222.711C434.727 223.694 435.553 224.684 436.215 225.695C436.877 226.707 437.241 227.91 437.305 229.299C437.048 232.141 434.506 234.263 429.677 235.652C424.841 237.041 419.521 237.739 413.71 237.739L413.688 237.746Z" fill="#FFD48F"/>
<path d="M567.331 237.646C562.082 237.646 557.254 236.62 552.831 234.569C548.408 232.518 544.869 228.85 542.212 223.573C539.556 218.296 538.231 210.86 538.231 201.253V168.171C538.231 164.446 537.946 161.904 537.376 160.543C536.806 159.183 535.546 158.507 533.587 158.507C531.123 158.507 529.35 157.794 528.281 156.377C527.206 154.953 526.672 153.393 526.672 151.684C526.672 149.853 527.178 148.173 528.189 146.663C529.2 145.146 530.496 144.391 532.077 144.391C534.983 144.391 537.462 143.65 539.52 142.162C541.571 140.68 543.672 137.725 545.823 133.302C547.468 130.019 549.405 127.711 551.649 126.379C553.892 125.055 556.655 124.392 559.946 124.392C562.346 124.392 564.418 125.29 566.156 127.092C567.894 128.893 568.763 131.251 568.763 134.157V136.621C568.763 139.911 569.062 142.012 569.66 142.924C570.258 143.842 572.046 144.298 575.016 144.298H581.839C583.797 144.298 585.471 144.754 586.86 145.673C588.248 146.592 588.946 148.5 588.946 151.406C588.946 154.312 588.284 156.064 586.959 157.047C585.635 158.029 584.054 158.514 582.223 158.514L574.638 158.421C571.733 158.421 570.023 158.927 569.518 159.938C569.012 160.949 568.763 163.506 568.763 167.616V202.307C568.763 204.329 568.891 206.48 569.14 208.752C569.389 211.024 570.073 212.954 571.177 214.535C572.281 216.116 574.097 216.907 576.625 216.907C577.444 216.907 578.52 216.714 579.852 216.337C581.497 215.831 583.171 215.575 584.873 215.575C586.575 215.575 587.935 216.081 589.139 217.092C590.335 218.103 590.941 220.19 590.941 223.345C590.941 226.13 589.644 228.608 587.052 230.787C584.46 232.967 581.347 234.662 577.715 235.858C574.083 237.062 570.622 237.66 567.338 237.66L567.331 237.646Z" fill="#FFD48F"/>
<path d="M685.661 148.009C682.847 146.62 679.735 145.922 676.324 145.922C672.912 145.922 669.579 146.649 666.702 148.101C663.825 149.554 662.386 151.67 662.386 154.454C662.386 155.779 662.657 156.918 663.191 157.866C663.725 158.813 664.345 159.717 665.042 160.565C665.733 161.42 666.353 162.303 666.887 163.221C667.421 164.14 667.692 165.258 667.692 166.583C667.692 167.402 667.535 168.385 667.215 169.524L656.788 205.07C655.649 208.987 654.167 210.946 652.337 210.946C650.507 210.946 648.833 209.115 647.501 205.448L634.988 169.524C634.61 168.321 634.418 167.252 634.418 166.298C634.418 165.037 634.689 163.962 635.223 163.079C635.757 162.196 636.377 161.341 637.074 160.522C637.765 159.703 638.385 158.82 638.919 157.866C639.453 156.918 639.724 155.779 639.724 154.454C639.724 152.432 638.542 150.794 636.17 149.526C633.798 148.265 630.75 147.347 627.025 146.777C623.293 146.207 619.412 145.922 615.367 145.922C611.635 145.922 608.038 146.221 604.563 146.819C601.087 147.418 598.245 148.336 596.031 149.569C593.816 150.801 592.712 152.368 592.712 154.262C592.712 156.035 593.153 157.467 594.036 158.578C594.919 159.682 595.995 160.743 597.263 161.754C599.727 163.464 601.721 166.056 603.231 169.524L622.09 223.174C623.792 228.359 625.929 232.134 628.485 234.498C631.042 236.87 634.917 238.337 640.094 238.907C641.419 238.971 644.56 238.7 643.741 239.519C610.951 272.544 558.512 265.073 533.927 259.119C526.648 257.36 519.455 262.309 518.479 269.738C517.546 276.867 522.753 283.341 529.917 283.946C557.878 286.282 587.406 285.335 613.793 274.816C641.113 263.926 660.962 239.284 667.428 210.789C670.612 196.766 675.17 183.248 679.422 169.524C679.991 167.694 680.796 166.177 681.836 164.973C682.876 163.77 684.015 162.687 685.247 161.704C686.48 160.729 687.555 159.682 688.467 158.578C689.385 157.474 689.841 156.035 689.841 154.262C689.841 151.484 688.431 149.398 685.625 148.009H685.661Z" fill="#FFD48F"/>
<path d="M487.051 239.64C479.594 239.64 473.085 238.266 467.523 235.517C461.96 232.767 457.331 229.085 453.635 224.477C449.939 219.862 447.161 214.67 445.295 208.887C443.429 203.104 442.496 197.186 442.496 191.118C442.496 185.05 443.429 179.224 445.295 173.441C447.161 167.658 449.939 162.459 453.635 157.851C457.331 153.236 461.96 149.561 467.523 146.812C473.085 144.063 479.594 142.689 487.051 142.689C493.625 142.689 499.764 144.441 505.49 147.952C511.209 151.456 515.838 156.356 519.378 162.645C522.917 168.933 524.684 176.276 524.684 184.68C524.684 186.574 524.228 188.412 523.309 190.178C522.39 191.944 521.037 193.419 519.235 194.587C517.433 195.755 515.176 196.339 512.455 196.339H479.943C477.479 196.339 475.599 196.623 474.303 197.193C473.007 197.763 472.359 198.739 472.359 200.135C472.423 202.349 473.32 204.728 475.058 207.292C476.796 209.849 479.324 212.078 482.643 213.973C485.961 215.867 489.893 216.814 494.444 216.814C498.233 216.814 501.566 216.323 504.443 215.347C507.32 214.371 510.333 213.025 513.495 211.316C514.82 210.625 516.052 210.276 517.191 210.276C519.214 210.276 520.71 210.988 521.692 212.413C522.668 213.837 523.16 215.717 523.16 218.053C523.16 219.948 522.59 221.686 521.45 223.267C513.801 234.199 502.335 239.661 487.044 239.661L487.051 239.64ZM482.942 156.698C481.111 156.755 479.367 157.068 477.707 157.659C476.048 158.243 474.716 159.219 473.712 160.572C472.708 161.932 472.237 163.741 472.309 166.02C472.387 168.798 473.056 171.64 474.31 174.545C475.563 177.451 477.201 179.894 479.217 181.895C481.232 183.889 483.383 184.858 485.655 184.787C487.87 184.723 490.071 183.79 492.257 181.988C494.451 180.186 496.26 177.764 497.684 174.716C499.116 171.668 499.771 168.285 499.664 164.56C499.621 163.107 499.223 161.761 498.453 160.515C497.691 159.276 496.132 158.293 493.767 157.574C491.41 156.854 487.799 156.562 482.935 156.705L482.942 156.698Z" fill="#FFD48F"/>
<path d="M238.032 242.923C228.631 241.307 221.089 237.988 215.413 232.974C209.736 227.96 205.912 221.579 203.939 213.837C201.966 206.096 201.817 197.393 203.476 187.742C205.136 178.092 208.177 169.831 212.564 163.143C216.951 156.463 222.67 151.655 229.706 148.735C236.75 145.808 245.033 145.167 254.562 146.805C264.091 148.443 271.769 151.784 277.417 156.797C283.064 161.804 286.839 168.178 288.748 175.913C290.656 183.647 290.749 192.493 289.04 202.456C287.345 212.299 284.296 220.511 279.895 227.091C275.494 233.679 269.796 238.373 262.802 241.179C255.808 243.985 247.554 244.569 238.025 242.923H238.032ZM243.851 228.637C250.325 229.748 254.997 222.156 257.867 205.854C258.7 200.996 259.17 195.192 259.277 188.447C259.377 181.703 258.664 175.692 257.133 170.429C255.602 165.166 252.831 162.061 248.829 161.113C245.403 160.522 242.54 162.26 240.24 166.319C237.939 170.379 236.095 176.461 234.699 184.552C233.844 189.537 233.353 195.334 233.246 201.951C233.132 208.567 233.873 214.436 235.461 219.549C237.049 224.663 239.848 227.697 243.851 228.637Z" fill="#FFB031"/>
<path d="M219.863 137.44L219.992 137.625C221.202 139.334 221.658 141.328 221.359 143.6C221.06 145.872 219.92 147.71 217.933 149.113C216.744 149.953 215.704 150.046 214.828 149.383C213.952 148.721 212.969 147.695 211.894 146.299L210.527 144.654C206.567 140.217 203.056 139.078 200 141.236C199.573 141.535 199.309 141.941 199.21 142.447C199.11 142.952 199.203 143.408 199.48 143.8C199.673 144.077 199.993 144.426 200.428 144.847C201.175 145.509 201.88 146.321 202.55 147.268C203.568 148.707 204.281 150.252 204.694 151.904C205.107 153.557 205.085 155.152 204.637 156.683C204.188 158.215 203.212 159.511 201.717 160.572C200.036 161.761 198.327 162.352 196.582 162.345C194.837 162.345 193.199 161.897 191.653 161.013C190.115 160.13 188.84 158.969 187.822 157.538C186.184 155.216 185.443 152.894 185.614 150.573C185.785 148.251 186.611 146.043 188.085 143.949C189.559 141.855 191.44 139.997 193.733 138.38C199.566 134.256 204.708 132.162 209.145 132.091C213.589 132.02 217.157 133.808 219.863 137.44Z" fill="#FFB031"/>
<path d="M299.572 147.653C303.731 149.198 307.876 152.895 312 158.727C313.616 161.021 314.77 163.399 315.461 165.864C316.152 168.335 316.187 170.685 315.575 172.929C314.962 175.172 313.495 177.116 311.173 178.754C309.735 179.773 308.147 180.435 306.402 180.749C304.657 181.062 302.962 180.934 301.317 180.357C299.672 179.78 298.254 178.648 297.065 176.967C296.004 175.471 295.519 173.926 295.605 172.33C295.69 170.735 296.203 169.225 297.15 167.801C298.09 166.376 299.28 165.159 300.718 164.147C301.666 163.478 302.599 162.958 303.524 162.573C304.08 162.317 304.493 162.096 304.771 161.904C305.17 161.626 305.405 161.227 305.476 160.714C305.547 160.202 305.44 159.739 305.134 159.304C302.976 156.249 299.287 156.149 294.074 159.012L292.236 160.102C290.755 161.056 289.494 161.697 288.44 162.025C287.393 162.353 286.446 161.925 285.606 160.729C284.203 158.742 283.74 156.634 284.217 154.39C284.694 152.154 285.791 150.43 287.5 149.22L287.685 149.091C291.446 146.57 295.413 146.086 299.572 147.631V147.653Z" fill="#FFB031"/>
<path d="M245.426 182.016C244.087 181.824 242.769 181.838 241.487 182.059C240.205 182.28 239.116 182.821 238.211 183.683C237.307 184.545 236.737 185.812 236.502 187.479C236.21 189.516 236.345 191.667 236.893 193.946C237.442 196.218 238.332 198.212 239.55 199.921C240.775 201.63 242.214 202.599 243.88 202.841C245.547 203.083 247.22 202.663 249.044 201.63C250.867 200.59 252.491 199.052 253.915 197.008C255.339 194.964 256.244 192.578 256.628 189.851C256.778 188.782 256.657 187.75 256.251 186.752C255.852 185.748 254.834 184.837 253.203 184.018C251.572 183.199 248.979 182.529 245.411 182.023L245.426 182.016Z" fill="#FFB031"/>
</svg>
